<?xml version="1.0" encoding="utf-8"?>
<!-- Generator: Adobe Illustrator 27.6.1, SVG Export Plug-In . SVG Version: 6.00 Build 0)  -->
<svg version="1.1" id="katman_1" xmlns="http://www.w3.org/2000/svg" xmlns:xlink="http://www.w3.org/1999/xlink" x="0px" y="0px"
	 viewBox="0 0 456.5 198.8" style="enable-background:new 0 0 456.5 198.8;" xml:space="preserve">
<style type="text/css">
	.st0{fill:none;stroke:#1B3B4C;stroke-width:6.921;stroke-miterlimit:10;}
	.st1{fill:#1B3B4C;stroke:#1B3B4C;stroke-width:0.75;stroke-miterlimit:10;}
	.st2{fill:#FF4900;stroke:#FF4900;stroke-width:0.75;stroke-miterlimit:10;}
	.st3{fill:#FF4900;stroke:#FF4900;stroke-width:0.7241;stroke-miterlimit:10;}
	.st4{fill:none;stroke:#FFFFFF;stroke-width:2.0945;stroke-miterlimit:10;}
	.st5{fill:none;}
</style>
<g>
	<path class="st0" d="M13.4,45v107.2c0,16.9,13.7,30.7,30.6,30.8l102.3,0.4c17,0.1,30.9-13.7,30.9-30.8V45c0-17-13.8-30.8-30.8-30.8
		H44.2C27.2,14.2,13.4,28,13.4,45z"/>
</g>
<g>
	<path class="st1" d="M21.8,141.2"/>
	<path class="st1" d="M21.8,99.1"/>
	<path class="st1" d="M167.8,143"/>
	<path class="st1" d="M167.8,100.9"/>
	<path class="st1" d="M95.3,84l-7.5,12.2l4.8-22c-0.9,0-1.9,0-2.8,0c-3.2,10.1-10.5,28.1-26.5,45.5C48,136.4,31.5,144.9,21.8,149
		v-6.8c9-4.3,19.3-10.5,29.5-19.5c32.1-28.3,41.2-65.3,44-81"/>
	<path class="st1" d="M95.8,83.2"/>
	<path class="st1" d="M22.8,153.5c0.2,1.1,0.5,2.5,1,4c0.6,1.7,1.4,3,2,4c2.1-1.8,4.3-3.7,6.5-5.8c3.6-3.4,7-6.7,10-10
		c-0.7-1-1.3-2-2-3c-2.1,1.9-4.8,4-8,6C28.9,150.9,25.6,152.4,22.8,153.5z"/>
	<path class="st1" d="M27.8,164.5c0.3,0.7,0.9,1.9,2,3c0.5,0.5,1.5,1.4,3,2c8-7.1,16.7-15.6,25.5-25.8c8.8-10.2,16.1-20.1,22-29
		c-0.7-1.3-1.3-2.7-2-4c-6.3,9.4-14.5,20.1-25,31C44.5,150.9,35.7,158.4,27.8,164.5z"/>
	<path class="st1" d="M72.3,133.7c-3.9,6.2-9.1,13.5-16,21c-6.5,7-12.9,12.5-18.5,16.8c1.5,0.7,3.6,1.5,6,2c3.8,0.8,7,0.6,9.2,0.2
		c7.1-12.3,14.2-24.7,21.3-37L72.3,133.7z"/>
	<polyline class="st1" points="72,172.7 89,101.7 93.3,99.1 80.3,173.7 72,173.7 71.8,173.7 72.1,172.6 	"/>
	<polyline class="st1" points="95.5,148.1 91.3,150.2 91.3,173.7 95.5,173.7 	"/>
	<path class="st1" d="M54.3,144.7"/>
	<path class="st1" d="M21.8,99.1v38.7c6.9-3.1,16-8.1,25.5-16.1c9.5-8,16-16.3,20.1-22.6"/>
	<path class="st1" d="M67.5,99.1c3.2-4.4,6.6-9.8,9.9-16.4c3.2-6.6,5.5-12.8,7-18l-16,16l25.1-56.7l-46.2-0.5
		c-14-0.2-25.4,11.1-25.4,25.1v50.5H67.5z"/>
	<path class="st1" d="M95.3,84.1"/>
	<path class="st1" d="M94.8,83.2"/>
	<path class="st1" d="M95.3,84l7.5,12.2l-4.8-22c0.9,0,1.9,0,2.8,0c3.2,10.1,10.5,28.1,26.5,45.5c15.3,16.6,31.8,25.2,41.5,29.3
		v-6.8c-9-4.3-19.3-10.5-29.5-19.5c-32.1-28.3-41.2-65.3-44-81"/>
	<path class="st1" d="M94.8,83.2"/>
	<path class="st1" d="M167.8,153.5c-0.2,1.1-0.5,2.5-1,4c-0.6,1.7-1.4,3-2,4c-2.1-1.8-4.3-3.7-6.5-5.8c-3.6-3.4-7-6.7-10-10
		c0.7-1,1.3-2,2-3c2.1,1.9,4.8,4,8,6C161.8,150.9,165.1,152.4,167.8,153.5z"/>
	<path class="st1" d="M162.8,164.5c-0.3,0.7-0.9,1.9-2,3c-0.5,0.5-1.5,1.4-3,2c-8-7.1-16.7-15.6-25.5-25.8
		c-8.8-10.2-16.1-20.1-22-29c0.7-1.3,1.3-2.7,2-4c6.3,9.4,14.5,20.1,25,31C146.2,150.9,154.9,158.4,162.8,164.5z"/>
	<path class="st1" d="M118.3,133.7c3.9,6.2,9.1,13.5,16,21c6.5,7,12.9,12.5,18.5,16.8c-1.5,0.7-3.6,1.5-6,2c-3.8,0.8-7,0.6-9.2,0.2
		c-7.1-12.3-14.2-24.7-21.3-37L118.3,133.7z"/>
	<polyline class="st1" points="118.6,172.7 101.7,101.7 97.3,99.1 110.3,173.7 118.6,173.7 118.9,173.7 118.6,172.6 	"/>
	<polyline class="st1" points="95.2,148.1 99.4,150.2 99.4,173.7 95.2,173.7 	"/>
	<path class="st1" d="M136.3,144.7"/>
	<path class="st1" d="M168.8,99.1v38.7c-6.9-3.1-16-8.1-25.5-16.1c-9.5-8-16-16.3-20.1-22.6"/>
	<path class="st1" d="M123.2,99.1c-3.2-4.4-6.6-9.8-9.9-16.4c-3.2-6.6-5.5-12.8-7-18l16,16L97.3,24.1l46.2-0.5
		c14-0.2,25.4,11.1,25.4,25.1v50.5"/>
	<path class="st1" d="M95.4,84.1"/>
	<path class="st1" d="M95.8,83.2"/>
</g>
<path class="st2" d="M131.9,110.7c-4.4-4.9-8.9-10.7-13.1-17.5c-6.5-10.7-10.3-20.7-12.5-28.5c5.3,5.3,10.7,10.7,16,16L104,39.4
	c24.8,5.2,44.3,22.6,49.8,44.9c0.8,3.2,1.2,6.2,1.4,9.2v3.4"/>
<path class="st2" d="M42.3,125.7"/>
<path class="st2" d="M59.1,110.7c2.6-2.8,5.2-6,7.7-9.5c10.2-14,15.1-27.6,17.5-36.5c-5.3,5.3-10.7,10.7-16,16l18.3-41.3
	c-1.9,0.3-34.6,6.3-46.8,36.9c-2.9,7.2-4,14.2-4.1,20.6"/>
<path class="st3" d="M131.9,110.7"/>
<path class="st4" d="M130.7,111.5c5.3-2.3,11.4-5.4,17.7-9.7c9.5-6.4,16.7-13.2,21.8-19"/>
<path class="st4" d="M60.3,111.5c-5.3-2.3-11.4-5.4-17.7-9.7c-9.5-6.4-16.7-13.2-21.8-19"/>
<g>
	<path class="st1" d="M249.8,97.2V47.7l-14.1,49.6H220l-14-49.4v49.4h-14.7V24.9h23.2l13.6,53.1l13.6-53.1h22.7v72.4H249.8z"/>
	<path class="st1" d="M305.7,97.2c-0.5-1.3-0.8-3.2-0.9-4.8c-3.5,3.7-9.4,6.2-16.9,6.2c-12.7,0-18.6-6-18.6-14.7
		c0-15.5,10.8-17.2,25.7-19.2c7.4-1,9.4-2.4,9.4-6.1c0-3.5-3.6-5.6-9.4-5.6c-6.7,0-9.4,3.2-10.1,8H271c0.2-11.1,6.6-18.9,24.5-18.9
		c17.7,0,23.9,7.6,23.9,21.1v33.9H305.7z M304.6,71c-1.5,1.4-4.1,2.2-9.5,3.2c-8.4,1.5-11.1,3.8-11.1,8.4c0,4,2.5,6,7.2,6
		c7.6,0,13.3-5.3,13.4-11.7L304.6,71z"/>
	<path class="st1" d="M361.7,97.2V64c0-8.1-2.8-10.6-9.5-10.6c-7.4,0-11.5,5.9-11.5,13.1v30.7h-14.8V24h14.8v26.6
		c2.2-4.8,9-8.4,16.5-8.4c11.5,0,19.4,6.4,19.4,17.1v37.9H361.7z"/>
	<path class="st1" d="M383.4,37.2V24h14.8v13.2H383.4z M383.4,97.2V43.6h14.8v53.6H383.4z"/>
	<path class="st1" d="M404.9,97.2V43.6h13.9v6.4c4.9-7.2,10.6-7.8,16.6-7.8h1.9v14.5c-1.4-0.2-2.7-0.3-4.1-0.3
		c-9.1,0-13.5,4.4-13.5,13v27.9H404.9z"/>
</g>
<g>
	<path class="st1" d="M233.4,174.3l-20.3-29.5l-7.6,7.2v22.3h-14.1v-65.6h14.1v26.7l26.2-26.7h18.6l-27,25.9l27.6,39.7H233.4z"/>
	<path class="st1" d="M283.4,174.3c-0.4-1.2-0.7-2.9-0.8-4.3c-3.2,3.4-8.6,5.6-15.4,5.6c-11.5,0-16.9-5.4-16.9-13.3
		c0-14,9.8-15.6,23.3-17.4c6.7-0.9,8.6-2.2,8.6-5.5c0-3.2-3.3-5-8.6-5c-6.1,0-8.6,2.9-9.2,7.2H252c0.2-10.1,6-17.1,22.3-17.1
		c16.1,0,21.7,6.9,21.7,19.2v30.7H283.4z M282.5,150.5c-1.3,1.3-3.7,2-8.7,2.9c-7.6,1.4-10.1,3.5-10.1,7.6c0,3.7,2.3,5.4,6.5,5.4
		c6.9,0,12.1-4.8,12.2-10.6L282.5,150.5z"/>
	<path class="st1" d="M301.8,174.3v-48.6h12.6v5.8c4.4-6.5,9.6-7.1,15.1-7.1h1.8v13.1c-1.2-0.2-2.5-0.3-3.7-0.3
		c-8.2,0-12.3,4-12.3,11.8v25.3H301.8z"/>
	<path class="st1" d="M363.6,142.3h12.5v13.8c0,10.3-6.2,19.5-20.5,19.5c-14.8,0-20.7-9.1-20.7-19.6v-43.5h13.2v13.1h28v9.1h-28v20
		c0,6.1,2.3,9.7,7.7,9.7c5.4,0,7.8-3.5,7.8-9.5V142.3z"/>
</g>
<rect x="228.2" y="138.6" class="st5" width="188.5" height="52.8"/>
<rect x="383.4" y="24" class="st2" width="14.8" height="13.2"/>
</svg>
