<svg width="1382" height="1426" viewBox="0 0 1382 1426" fill="none" xmlns="http://www.w3.org/2000/svg">
<rect x="28" y="29" width="1326" height="1350" rx="213" fill="#D9D9D9"/>
<path d="M28.4111 278.072V1145.37C28.4111 1282.1 139.25 1393.75 275.979 1394.55L1103.63 1397.79C1241.17 1398.6 1353.63 1286.95 1353.63 1148.6V278.072C1353.63 140.534 1241.98 28.8862 1104.44 28.8862H277.597C140.059 28.8862 28.4111 140.534 28.4111 278.072Z" stroke="#1B3B4C" stroke-width="55.994" stroke-miterlimit="10"/>
<path d="M691.018 593.6L630.34 692.303L669.174 514.313C661.893 514.313 653.802 514.313 646.521 514.313C620.631 596.027 561.571 741.655 432.124 882.429C308.34 1017.54 174.848 1086.31 96.3701 1119.48V1064.46C169.184 1029.68 252.516 979.514 335.038 906.7C594.742 677.74 668.365 378.394 691.018 251.374" fill="#1B3B4C"/>
<path d="M691.018 593.6L630.34 692.303L669.174 514.313C661.893 514.313 653.802 514.313 646.521 514.313C620.631 596.027 561.571 741.655 432.124 882.429C308.34 1017.54 174.848 1086.31 96.3701 1119.48V1064.46C169.184 1029.68 252.516 979.514 335.038 906.7C594.742 677.74 668.365 378.394 691.018 251.374" stroke="#1B3B4C" stroke-width="6.06784" stroke-miterlimit="10"/>
<path d="M104.461 1155.89C106.079 1164.79 108.506 1176.11 112.551 1188.25C117.406 1202 123.878 1212.52 128.732 1220.61C145.722 1206.05 163.521 1190.68 181.32 1173.69C210.446 1146.18 237.953 1119.48 262.225 1092.78C256.561 1084.69 251.707 1076.6 246.044 1068.51C229.054 1083.88 207.21 1100.87 181.32 1117.05C153.813 1134.85 127.114 1146.99 104.461 1155.89Z" fill="#1B3B4C" stroke="#1B3B4C" stroke-width="6.06784" stroke-miterlimit="10"/>
<path d="M144.913 1244.88C147.34 1250.54 152.194 1260.25 161.094 1269.15C165.139 1273.2 173.23 1280.48 185.365 1285.33C250.089 1227.89 320.476 1159.12 391.672 1076.6C462.868 994.077 521.928 913.982 569.662 841.977C563.999 831.459 559.144 820.132 553.481 809.615C502.511 885.665 436.169 972.233 351.22 1060.42C280.024 1134.85 208.828 1195.53 144.913 1244.88Z" fill="#1B3B4C" stroke="#1B3B4C" stroke-width="6.06784" stroke-miterlimit="10"/>
<path d="M504.938 995.695C473.385 1045.86 431.315 1104.92 375.491 1165.59C322.903 1222.23 271.124 1266.73 225.817 1301.51C237.953 1307.18 254.943 1313.65 274.36 1317.7C305.104 1324.17 330.993 1322.55 348.792 1319.31C406.234 1219.8 463.677 1119.48 521.119 1019.97L504.938 995.695Z" fill="#1B3B4C" stroke="#1B3B4C" stroke-width="6.06784" stroke-miterlimit="10"/>
<path d="M502.511 1311.22L640.048 736.8L674.837 715.765L569.661 1319.31H502.511H500.893L503.32 1310.41" fill="#1B3B4C"/>
<path d="M502.511 1311.22L640.048 736.8L674.837 715.765L569.661 1319.31H502.511H500.893L503.32 1310.41" stroke="#1B3B4C" stroke-width="6.06784" stroke-miterlimit="10"/>
<path d="M692.636 1112.2L658.656 1129.19V1319.31H692.636" fill="#1B3B4C"/>
<path d="M692.636 1112.2L658.656 1129.19V1319.31H692.636" stroke="#1B3B4C" stroke-width="6.06784" stroke-miterlimit="10"/>
<path d="M96.3701 715.765V1028.87C152.194 1003.78 225.817 963.332 302.677 898.609C379.536 833.885 432.124 766.734 465.295 715.765" fill="#1B3B4C"/>
<path d="M96.3701 715.765V1028.87C152.194 1003.78 225.817 963.332 302.677 898.609C379.536 833.885 432.124 766.734 465.295 715.765" stroke="#1B3B4C" stroke-width="6.06784" stroke-miterlimit="10"/>
<path d="M466.104 715.765C491.994 680.167 519.501 636.479 546.2 583.082C572.089 529.685 590.697 479.524 602.833 437.454L473.386 566.901L676.456 108.172L302.677 104.127C189.411 102.509 97.1797 193.931 97.1797 307.197V715.765H466.104Z" fill="#1B3B4C" stroke="#1B3B4C" stroke-width="6.06784" stroke-miterlimit="10"/>
<path d="M691.019 593.6L751.697 692.303L712.863 514.313C720.144 514.313 728.235 514.313 735.516 514.313C761.405 596.027 820.466 741.655 949.913 882.429C1073.7 1016.73 1207.19 1086.31 1285.67 1119.48V1064.46C1212.85 1029.68 1129.52 979.514 1047 906.7C787.295 677.74 713.672 378.394 691.019 251.374" fill="#1B3B4C"/>
<path d="M691.019 593.6L751.697 692.303L712.863 514.313C720.144 514.313 728.235 514.313 735.516 514.313C761.405 596.027 820.466 741.655 949.913 882.429C1073.7 1016.73 1207.19 1086.31 1285.67 1119.48V1064.46C1212.85 1029.68 1129.52 979.514 1047 906.7C787.295 677.74 713.672 378.394 691.019 251.374" stroke="#1B3B4C" stroke-width="6.06784" stroke-miterlimit="10"/>
<path d="M1277.58 1155.89C1275.96 1164.79 1273.53 1176.11 1269.49 1188.25C1264.63 1202 1258.16 1212.52 1253.3 1220.61C1236.32 1206.05 1218.52 1190.68 1200.72 1173.69C1171.59 1146.18 1144.08 1119.48 1119.81 1092.78C1125.48 1084.69 1130.33 1076.6 1135.99 1068.51C1152.98 1083.88 1174.83 1100.87 1200.72 1117.05C1229.03 1134.85 1255.73 1146.99 1277.58 1155.89Z" fill="#1B3B4C" stroke="#1B3B4C" stroke-width="6.06784" stroke-miterlimit="10"/>
<path d="M1237.12 1244.88C1234.7 1250.54 1229.84 1260.25 1220.94 1269.15C1216.9 1273.2 1208.81 1280.48 1196.67 1285.33C1131.95 1227.89 1061.56 1159.12 990.365 1076.6C919.169 994.077 860.109 913.982 812.375 841.977C818.038 831.459 822.893 820.132 828.556 809.615C879.526 885.665 945.867 972.233 1030.82 1060.42C1102.82 1134.85 1173.21 1195.53 1237.12 1244.88Z" fill="#1B3B4C" stroke="#1B3B4C" stroke-width="6.06784" stroke-miterlimit="10"/>
<path d="M877.099 995.695C908.652 1045.86 950.722 1104.92 1006.55 1165.59C1059.13 1222.23 1110.91 1266.73 1156.22 1301.51C1144.08 1307.18 1127.09 1313.65 1107.68 1317.7C1076.93 1324.17 1051.04 1322.55 1033.24 1319.31C975.802 1219.8 918.36 1119.48 860.918 1019.97L877.099 995.695Z" fill="#1B3B4C" stroke="#1B3B4C" stroke-width="6.06784" stroke-miterlimit="10"/>
<path d="M879.526 1311.22L742.797 736.8L707.199 715.765L812.375 1319.31H879.526H881.953L879.526 1310.41" fill="#1B3B4C"/>
<path d="M879.526 1311.22L742.797 736.8L707.199 715.765L812.375 1319.31H879.526H881.953L879.526 1310.41" stroke="#1B3B4C" stroke-width="6.06784" stroke-miterlimit="10"/>
<path d="M690.213 1112.2L724.193 1129.19V1319.31H690.213" fill="#1B3B4C"/>
<path d="M690.213 1112.2L724.193 1129.19V1319.31H690.213" stroke="#1B3B4C" stroke-width="6.06784" stroke-miterlimit="10"/>
<path d="M1285.67 715.765V1028.87C1229.85 1003.78 1156.22 963.332 1079.36 898.609C1002.5 833.885 949.916 766.734 916.745 715.765" fill="#1B3B4C"/>
<path d="M1285.67 715.765V1028.87C1229.85 1003.78 1156.22 963.332 1079.36 898.609C1002.5 833.885 949.916 766.734 916.745 715.765" stroke="#1B3B4C" stroke-width="6.06784" stroke-miterlimit="10"/>
<path d="M916.742 715.762C890.852 680.164 863.345 636.475 836.646 583.078C810.757 529.681 792.149 479.521 780.013 437.45L909.461 566.898L707.199 108.978L1080.98 104.933C1194.24 103.315 1286.48 194.737 1286.48 308.003V716.571" fill="#1B3B4C"/>
<path d="M916.742 715.762C890.852 680.164 863.345 636.475 836.646 583.078C810.757 529.681 792.149 479.521 780.013 437.45L909.461 566.898L707.199 108.978L1080.98 104.933C1194.24 103.315 1286.48 194.737 1286.48 308.003V716.571" stroke="#1B3B4C" stroke-width="6.06784" stroke-miterlimit="10"/>
<path d="M987.131 809.612C951.533 769.969 915.126 723.045 881.146 668.029C828.558 581.462 797.814 500.557 780.015 437.452C822.895 480.331 866.583 524.019 909.463 566.899L761.407 232.763C962.05 274.834 1119.81 415.607 1164.31 596.025C1170.78 621.914 1174.02 646.185 1175.64 670.457V697.964" fill="#FF4900"/>
<path d="M987.131 809.612C951.533 769.969 915.126 723.045 881.146 668.029C828.558 581.462 797.814 500.557 780.015 437.452C822.895 480.331 866.583 524.019 909.463 566.899L761.407 232.763C962.05 274.834 1119.81 415.607 1164.31 596.024C1170.78 621.914 1174.02 646.185 1175.64 670.457V697.964" stroke="#FF4900" stroke-width="6.06784" stroke-miterlimit="10"/>
<path d="M398.148 809.612C419.183 786.959 440.218 761.07 460.444 732.753C542.967 619.487 582.61 509.457 602.027 437.452C559.148 480.331 515.459 524.019 472.58 566.899L620.635 232.763C605.263 235.19 340.705 283.733 242.002 531.301C218.54 589.552 209.64 646.185 208.831 697.964" fill="#FF4900"/>
<path d="M398.148 809.612C419.183 786.959 440.218 761.07 460.444 732.753C542.967 619.487 582.61 509.457 602.027 437.452C559.148 480.331 515.459 524.019 472.58 566.899L620.635 232.763C605.263 235.19 340.705 283.733 242.002 531.301C218.54 589.552 209.64 646.185 208.831 697.964" stroke="#FF4900" stroke-width="6.06784" stroke-miterlimit="10"/>
<path d="M977.424 816.084C1020.3 797.476 1069.65 772.395 1120.62 737.606C1197.48 685.827 1255.74 630.812 1297 583.888" stroke="#D9D9D9" stroke-width="20" stroke-miterlimit="10"/>
<path d="M407.853 816.084C364.974 797.476 315.622 772.395 264.652 737.606C187.793 685.827 129.542 630.812 88.2803 583.888" stroke="#D9D9D9" stroke-width="20" stroke-miterlimit="10"/>
</svg>
