<svg width="62" height="28" viewBox="0 0 62 28" fill="none" xmlns="http://www.w3.org/2000/svg">
<rect x="1.48511" y="2.32959" width="23.0615" height="23.2315" rx="5.66621" fill="#D9D9D9"/>
<path d="M1.94141 6.50822V21.052C1.94141 23.3448 3.79833 25.2171 6.089 25.2306L19.955 25.2849C22.2592 25.2985 24.1432 23.4262 24.1432 21.1063V6.50822C24.1432 4.20183 22.2727 2.32959 19.9685 2.32959H6.11611C3.81189 2.32959 1.94141 4.20183 1.94141 6.50822Z" stroke="#1B3B4C" stroke-width="0.963255" stroke-miterlimit="10"/>
<path d="M13.0422 11.7996L12.0256 13.4548L12.6762 10.4701C12.5542 10.4701 12.4187 10.4701 12.2967 10.4701C11.863 11.8403 10.8735 14.2824 8.70483 16.643C6.63104 18.9087 4.39459 20.0619 3.07983 20.6182V19.6956C4.29971 19.1122 5.6958 18.2711 7.07833 17.05C11.4292 13.2106 12.6627 8.19081 13.0422 6.06079" fill="#1B3B4C"/>
<path d="M13.0422 11.7996L12.0256 13.4548L12.6762 10.4701C12.5542 10.4701 12.4187 10.4701 12.2967 10.4701C11.863 11.8403 10.8735 14.2824 8.70483 16.643C6.63104 18.9087 4.39459 20.0619 3.07983 20.6182V19.6956C4.29971 19.1122 5.6958 18.2711 7.07833 17.05C11.4292 13.2106 12.6627 8.19081 13.0422 6.06079" stroke="#1B3B4C" stroke-width="0.0424966" stroke-miterlimit="10"/>
<path d="M3.21533 21.2284C3.24244 21.3777 3.2831 21.5676 3.35087 21.7711C3.4322 22.0017 3.54063 22.1781 3.62196 22.3138C3.9066 22.0696 4.20479 21.8118 4.50298 21.5269C4.99093 21.0656 5.45178 20.6179 5.8584 20.1702C5.76352 20.0345 5.6822 19.8989 5.58732 19.7632C5.30268 20.021 4.93672 20.3059 4.50298 20.5772C4.04214 20.8757 3.59485 21.0792 3.21533 21.2284Z" fill="#1B3B4C" stroke="#1B3B4C" stroke-width="0.0424966" stroke-miterlimit="10"/>
<path d="M3.89331 22.7209C3.93397 22.8159 4.0153 22.9787 4.16439 23.1279C4.23217 23.1958 4.36771 23.3179 4.57102 23.3993C5.65536 22.436 6.83458 21.2828 8.02735 19.899C9.22012 18.5151 10.2096 17.172 11.0093 15.9646C10.9144 15.7882 10.8331 15.5982 10.7382 15.4219C9.88427 16.6972 8.77283 18.1488 7.34964 19.6276C6.15686 20.8758 4.96409 21.8933 3.89331 22.7209Z" fill="#1B3B4C" stroke="#1B3B4C" stroke-width="0.0424966" stroke-miterlimit="10"/>
<path d="M9.92474 18.5422C9.39613 19.3834 8.69131 20.3738 7.75607 21.3913C6.87504 22.341 6.00757 23.0872 5.24854 23.6706C5.45185 23.7655 5.73649 23.8741 6.06179 23.9419C6.57685 24.0504 7.01058 24.0233 7.30878 23.969C8.27113 22.3003 9.23348 20.618 10.1958 18.9492L9.92474 18.5422Z" fill="#1B3B4C" stroke="#1B3B4C" stroke-width="0.0424966" stroke-miterlimit="10"/>
<path d="M9.88404 23.8332L12.1883 14.2006L12.7711 13.8479L11.009 23.9689H9.88404H9.85693L9.8976 23.8196" fill="#1B3B4C"/>
<path d="M9.88404 23.8332L12.1883 14.2006L12.7711 13.8479L11.009 23.9689H9.88404H9.85693L9.8976 23.8196" stroke="#1B3B4C" stroke-width="0.0424966" stroke-miterlimit="10"/>
<path d="M13.0695 20.4958L12.5002 20.7808V23.969H13.0695" fill="#1B3B4C"/>
<path d="M13.0695 20.4958L12.5002 20.7808V23.969H13.0695" stroke="#1B3B4C" stroke-width="0.0424966" stroke-miterlimit="10"/>
<path d="M3.07983 13.8479V19.0983C4.01507 18.6777 5.24851 17.9994 6.53616 16.914C7.82381 15.8287 8.70483 14.7026 9.26056 13.8479" fill="#1B3B4C"/>
<path d="M3.07983 13.8479V19.0983C4.01507 18.6777 5.24851 17.9994 6.53616 16.914C7.82381 15.8287 8.70483 14.7026 9.26056 13.8479" stroke="#1B3B4C" stroke-width="0.0424966" stroke-miterlimit="10"/>
<path d="M9.27447 13.8483C9.70821 13.2514 10.1691 12.5187 10.6163 11.6233C11.0501 10.7279 11.3618 9.88674 11.5651 9.18126L9.39646 11.352L12.7986 3.6595L6.53652 3.59166C4.63893 3.56453 3.09375 5.0976 3.09375 6.99697V13.8483H9.27447Z" fill="#1B3B4C" stroke="#1B3B4C" stroke-width="0.0424966" stroke-miterlimit="10"/>
<path d="M13.0422 11.7996L14.0588 13.4548L13.4082 10.4701C13.5302 10.4701 13.6657 10.4701 13.7877 10.4701C14.2215 11.8403 15.2109 14.2824 17.3796 16.643C19.4534 18.8952 21.6898 20.0619 23.0046 20.6182V19.6956C21.7847 19.1122 20.3886 18.2711 19.0061 17.05C14.6552 13.2106 13.4218 8.19081 13.0422 6.06079" fill="#1B3B4C"/>
<path d="M13.0422 11.7996L14.0588 13.4548L13.4082 10.4701C13.5302 10.4701 13.6657 10.4701 13.7877 10.4701C14.2215 11.8403 15.2109 14.2824 17.3796 16.643C19.4534 18.8952 21.6898 20.0619 23.0046 20.6182V19.6956C21.7847 19.1122 20.3886 18.2711 19.0061 17.05C14.6552 13.2106 13.4218 8.19081 13.0422 6.06079" stroke="#1B3B4C" stroke-width="0.0424966" stroke-miterlimit="10"/>
<path d="M22.8689 21.2284C22.8418 21.3777 22.8011 21.5676 22.7334 21.7711C22.652 22.0017 22.5436 22.1781 22.4623 22.3138C22.1776 22.0696 21.8794 21.8118 21.5813 21.5269C21.0933 21.0656 20.6325 20.6179 20.2258 20.1702C20.3207 20.0345 20.402 19.8989 20.4969 19.7632C20.7816 20.021 21.1475 20.3059 21.5813 20.5772C22.0556 20.8757 22.5029 21.0792 22.8689 21.2284Z" fill="#1B3B4C" stroke="#1B3B4C" stroke-width="0.0424966" stroke-miterlimit="10"/>
<path d="M22.1914 22.7209C22.1507 22.8159 22.0694 22.9787 21.9203 23.1279C21.8525 23.1958 21.717 23.3179 21.5137 23.3993C20.4294 22.436 19.2501 21.2828 18.0574 19.899C16.8646 18.5151 15.8751 17.172 15.0754 15.9646C15.1703 15.7882 15.2516 15.5982 15.3465 15.4219C16.2004 16.6972 17.3119 18.1488 18.7351 19.6276C19.9414 20.8758 21.1206 21.8933 22.1914 22.7209Z" fill="#1B3B4C" stroke="#1B3B4C" stroke-width="0.0424966" stroke-miterlimit="10"/>
<path d="M16.1595 18.5422C16.6881 19.3834 17.3929 20.3738 18.3282 21.3913C19.2092 22.341 20.0767 23.0872 20.8357 23.6706C20.6324 23.7655 20.3478 23.8741 20.0225 23.9419C19.5074 24.0504 19.0737 24.0233 18.7755 23.969C17.8131 22.3003 16.8508 20.618 15.8884 18.9492L16.1595 18.5422Z" fill="#1B3B4C" stroke="#1B3B4C" stroke-width="0.0424966" stroke-miterlimit="10"/>
<path d="M16.2005 23.8332L13.9099 14.2006L13.3135 13.8479L15.0755 23.9689H16.2005H16.2412L16.2005 23.8196" fill="#1B3B4C"/>
<path d="M16.2005 23.8332L13.9099 14.2006L13.3135 13.8479L15.0755 23.9689H16.2005H16.2412L16.2005 23.8196" stroke="#1B3B4C" stroke-width="0.0424966" stroke-miterlimit="10"/>
<path d="M13.0286 20.4958L13.5978 20.7808V23.969H13.0286" fill="#1B3B4C"/>
<path d="M13.0286 20.4958L13.5978 20.7808V23.969H13.0286" stroke="#1B3B4C" stroke-width="0.0424966" stroke-miterlimit="10"/>
<path d="M23.2667 13.9749V19.2253C22.3314 18.8047 21.098 18.1263 19.8103 17.041C18.5227 15.9556 17.6417 14.8296 17.0859 13.9749" fill="#1B3B4C"/>
<path d="M23.2667 13.9749V19.2253C22.3314 18.8047 21.098 18.1263 19.8103 17.041C18.5227 15.9556 17.6417 14.8296 17.0859 13.9749" stroke="#1B3B4C" stroke-width="0.0424966" stroke-miterlimit="10"/>
<path d="M16.824 13.8482C16.3903 13.2512 15.9294 12.5186 15.4822 11.6232C15.0484 10.7278 14.7367 9.8866 14.5334 9.18112L16.702 11.3518L13.3135 3.67293L19.5755 3.60509C21.4731 3.57796 23.0183 5.11103 23.0183 7.0104V13.8617" fill="#1B3B4C"/>
<path d="M16.824 13.8482C16.3903 13.2512 15.9294 12.5186 15.4822 11.6232C15.0484 10.7278 14.7367 9.8866 14.5334 9.18112L16.702 11.3518L13.3135 3.67293L19.5755 3.60509C21.4731 3.57796 23.0183 5.11103 23.0183 7.0104V13.8617" stroke="#1B3B4C" stroke-width="0.0424966" stroke-miterlimit="10"/>
<path d="M18.0028 15.422C17.4064 14.7573 16.7965 13.9704 16.2272 13.0478C15.3462 11.5961 14.8311 10.2394 14.5329 9.18122C15.2513 9.90027 15.9832 10.6329 16.7016 11.3519L14.2212 5.74878C17.5826 6.45426 20.2257 8.81492 20.9712 11.8404C21.0796 12.2745 21.1338 12.6815 21.161 13.0885V13.5498" fill="#FF4900"/>
<path d="M18.0028 15.422C17.4064 14.7573 16.7965 13.9704 16.2272 13.0478C15.3462 11.5961 14.8311 10.2394 14.5329 9.18122C15.2513 9.90027 15.9832 10.6329 16.7016 11.3519L14.2212 5.74878C17.5826 6.45426 20.2257 8.81492 20.9712 11.8404C21.0796 12.2745 21.1338 12.6815 21.161 13.0885V13.5498" stroke="#FF4900" stroke-width="0.0424966" stroke-miterlimit="10"/>
<path d="M8.13555 15.422C8.48796 15.0422 8.84037 14.608 9.17923 14.1332C10.5618 12.2338 11.2259 10.3887 11.5512 9.18122C10.8328 9.90027 10.1009 10.6329 9.38254 11.3519L11.863 5.74878C11.6054 5.78948 7.1732 6.6035 5.51959 10.755C5.12652 11.7318 4.97742 12.6815 4.96387 13.5498" fill="#FF4900"/>
<path d="M8.13555 15.422C8.48796 15.0422 8.84037 14.608 9.17923 14.1332C10.5618 12.2338 11.2259 10.3887 11.5512 9.18122C10.8328 9.90027 10.1009 10.6329 9.38254 11.3519L11.863 5.74878C11.6054 5.78948 7.1732 6.6035 5.51959 10.755C5.12652 11.7318 4.97742 12.6815 4.96387 13.5498" stroke="#FF4900" stroke-width="0.0424966" stroke-miterlimit="10"/>
<path d="M17.8406 15.5307C18.5589 15.2186 19.3858 14.7981 20.2397 14.2147C21.5273 13.3464 22.5032 12.4238 23.1945 11.637" stroke="#D9D9D9" stroke-width="0.453297" stroke-miterlimit="10"/>
<path d="M8.29801 15.5307C7.57963 15.2186 6.75283 14.7981 5.89891 14.2147C4.61126 13.3464 3.63536 12.4238 2.94409 11.637" stroke="#D9D9D9" stroke-width="0.453297" stroke-miterlimit="10"/>
<path d="M33.9832 13.5904V6.87476L32.072 13.604H29.944L28.0464 6.9019V13.604H26.054V3.78149H29.1985L31.0419 10.9856L32.8853 3.78149H35.9621V13.604H33.9832V13.5904Z" fill="#D9D9D9" stroke="#1B3B4C" stroke-width="0.0424966" stroke-miterlimit="10"/>
<path d="M41.5602 13.5904C41.4924 13.414 41.4518 13.1563 41.4382 12.9392C40.9638 13.4412 40.1641 13.7803 39.1476 13.7803C37.4262 13.7803 36.6265 12.9663 36.6265 11.786C36.6265 9.68311 38.0903 9.45247 40.1099 9.18113C41.1129 9.04546 41.384 8.85552 41.384 8.35354C41.384 7.8787 40.896 7.59379 40.1099 7.59379C39.2018 7.59379 38.8358 8.02793 38.7409 8.67915H36.8569C36.884 7.17321 37.7515 6.11499 40.1777 6.11499C42.5768 6.11499 43.4171 7.14608 43.4171 8.97762V13.5768H41.5602V13.5904ZM41.4111 10.0358C41.2078 10.2258 40.8554 10.3343 40.1235 10.47C38.9849 10.6735 38.6189 10.9855 38.6189 11.6096C38.6189 12.1523 38.9578 12.4236 39.5948 12.4236C40.625 12.4236 41.3976 11.7046 41.4111 10.8363V10.0358Z" fill="#D9D9D9" stroke="#1B3B4C" stroke-width="0.0424966" stroke-miterlimit="10"/>
<path d="M49.151 13.5902V9.08597C49.151 7.98705 48.7715 7.64787 47.8633 7.64787C46.8603 7.64787 46.3046 8.44832 46.3046 9.42515V13.5902H44.2986V3.65918H46.3046V7.268C46.6028 6.61678 47.5245 6.12837 48.5411 6.12837C50.0998 6.12837 51.1706 6.99666 51.1706 8.44832V13.5902H49.151Z" fill="#D9D9D9" stroke="#1B3B4C" stroke-width="0.0424966" stroke-miterlimit="10"/>
<path d="M52.0918 5.45002V3.65918H54.0978V5.45002H52.0918ZM52.0918 13.5902V6.31831H54.0978V13.5902H52.0918Z" fill="#D9D9D9" stroke="#1B3B4C" stroke-width="0.0424966" stroke-miterlimit="10"/>
<path d="M55.0059 13.5903V6.31836H56.8899V7.18664C57.5541 6.20982 58.3266 6.12842 59.1399 6.12842H59.3974V8.09563C59.2077 8.0685 59.0315 8.05493 58.8417 8.05493C57.6083 8.05493 57.0119 8.65188 57.0119 9.81864V13.6038H55.0059V13.5903Z" fill="#D9D9D9" stroke="#1B3B4C" stroke-width="0.0424966" stroke-miterlimit="10"/>
<path d="M31.7604 24.0503L29.0089 20.0481L27.9788 21.0249V24.0503H26.0676V15.1504H27.9788V18.7728L31.53 15.1504H34.0511L30.3914 18.6642L34.1324 24.0503H31.7604Z" fill="#D9D9D9" stroke="#1B3B4C" stroke-width="0.0424966" stroke-miterlimit="10"/>
<path d="M38.5375 24.0505C38.4833 23.8877 38.4426 23.6571 38.429 23.4672C37.9953 23.9284 37.2634 24.2269 36.3417 24.2269C34.783 24.2269 34.051 23.4943 34.051 22.4225C34.051 20.5231 35.3793 20.3061 37.2092 20.0619C38.1173 19.9397 38.3748 19.7634 38.3748 19.3157C38.3748 18.8815 37.9275 18.6373 37.2092 18.6373C36.3824 18.6373 36.0435 19.0308 35.9622 19.6141H34.2814C34.3086 18.2439 35.0947 17.2942 37.304 17.2942C39.4863 17.2942 40.2453 18.2303 40.2453 19.899V24.0641H38.5375V24.0505ZM38.4155 20.8216C38.2393 20.998 37.914 21.0929 37.2363 21.215C36.2061 21.405 35.8673 21.6899 35.8673 22.2461C35.8673 22.7481 36.179 22.9788 36.7483 22.9788C37.6836 22.9788 38.3884 22.3275 38.4019 21.5407L38.4155 20.8216Z" fill="#D9D9D9" stroke="#1B3B4C" stroke-width="0.0424966" stroke-miterlimit="10"/>
<path d="M41.0315 24.0504V17.4569H42.7393V18.2438C43.3357 17.3619 44.0405 17.2805 44.786 17.2805H45.03V19.0578C44.8673 19.0307 44.6911 19.0171 44.5285 19.0171C43.417 19.0171 42.8613 19.5598 42.8613 20.618V24.0504H41.0315Z" fill="#D9D9D9" stroke="#1B3B4C" stroke-width="0.0424966" stroke-miterlimit="10"/>
<path d="M49.4081 19.7092H51.1024V21.5815C51.1024 22.9789 50.262 24.227 48.3238 24.227C46.3178 24.227 45.5181 22.9924 45.5181 21.5679V15.6663H47.3072V17.4435H51.1024V18.6781H47.3072V21.3915C47.3072 22.2191 47.619 22.7075 48.3509 22.7075C49.0828 22.7075 49.4081 22.2327 49.4081 21.4187V19.7092Z" fill="#D9D9D9" stroke="#1B3B4C" stroke-width="0.0424966" stroke-miterlimit="10"/>
<path d="M54.0978 3.65918H52.0918V5.45002H54.0978V3.65918Z" fill="#FF4900" stroke="#FF4900" stroke-width="0.0424966" stroke-miterlimit="10"/>
</svg>
