<svg width="942" height="1767" viewBox="0 0 942 1767" fill="none" xmlns="http://www.w3.org/2000/svg">
<path fill-rule="evenodd" clip-rule="evenodd" d="M0 57C0 55.3431 1.34315 54 3 54H933C934.657 54 936 55.3431 936 57V1764C936 1765.66 934.657 1767 933 1767H2.99999C1.34314 1767 0 1765.66 0 1764V57ZM105 123C105 145.091 87.3152 163 65.5 163C43.6848 163 26 145.091 26 123C26 100.909 43.6848 83 65.5 83C87.3152 83 105 100.909 105 123ZM563.5 1381C585.315 1381 603 1363.09 603 1341C603 1318.91 585.315 1301 563.5 1301C541.685 1301 524 1318.91 524 1341C524 1363.09 541.685 1381 563.5 1381Z" fill="#19171A"/>
<rect x="738" y="590" width="180" height="28" fill="#C9D2D2"/>
<rect x="738" y="649" width="181" height="28" fill="#C9D2D2"/>
<rect x="761" y="574" width="132" height="112" fill="#9A9592"/>
<rect x="800" y="608" width="55" height="45" fill="black"/>
<rect x="359" y="435" width="180" height="28" fill="#C9D2D2"/>
<rect x="359" y="494" width="181" height="28" fill="#C9D2D2"/>
<rect x="382" y="419" width="132" height="112" fill="#9A9592"/>
<rect x="421" y="453" width="55" height="45" fill="black"/>
<rect x="285" y="875" width="263" height="262" fill="#353130"/>
<rect x="744" y="1037" width="84" height="48" fill="#353130"/>
<ellipse cx="36.5" cy="752" rx="31.5" ry="32" fill="#D9D9D9"/>
<ellipse cx="36.5" cy="943" rx="31.5" ry="32" fill="#D9D9D9"/>
<ellipse cx="36.5" cy="1043" rx="31.5" ry="32" fill="#D9D9D9"/>
<ellipse cx="36.5" cy="1137" rx="31.5" ry="32" fill="#D9D9D9"/>
<ellipse cx="36.5" cy="1231" rx="31.5" ry="32" fill="#D9D9D9"/>
<ellipse cx="36.5" cy="1325" rx="31.5" ry="32" fill="#D9D9D9"/>
<ellipse cx="36.5" cy="1425" rx="31.5" ry="32" fill="#D9D9D9"/>
<ellipse cx="36.5" cy="1525" rx="31.5" ry="32" fill="#D9D9D9"/>
<ellipse cx="36.5" cy="1619" rx="31.5" ry="32" fill="#D9D9D9"/>
<ellipse cx="36.5" cy="1713" rx="31.5" ry="32" fill="#D9D9D9"/>
<ellipse cx="129.5" cy="1713" rx="31.5" ry="32" fill="#D9D9D9"/>
<ellipse cx="226.5" cy="1713" rx="31.5" ry="32" fill="#D9D9D9"/>
<ellipse cx="319.5" cy="1713" rx="31.5" ry="32" fill="#D9D9D9"/>
<ellipse cx="416.5" cy="1713" rx="31.5" ry="32" fill="#D9D9D9"/>
<ellipse cx="513.5" cy="1713" rx="31.5" ry="32" fill="#D9D9D9"/>
<ellipse cx="610.5" cy="1713" rx="31.5" ry="32" fill="#D9D9D9"/>
<ellipse cx="707.5" cy="1713" rx="31.5" ry="32" fill="#D9D9D9"/>
<ellipse cx="804.5" cy="1713" rx="31.5" ry="32" fill="#D9D9D9"/>
<ellipse cx="901.5" cy="1713" rx="31.5" ry="32" fill="#D9D9D9"/>
<ellipse cx="901.5" cy="1624" rx="31.5" ry="32" fill="#D9D9D9"/>
<ellipse cx="901.5" cy="1527" rx="31.5" ry="32" fill="#D9D9D9"/>
<ellipse cx="901.5" cy="1430" rx="31.5" ry="32" fill="#D9D9D9"/>
<ellipse cx="901.5" cy="1333" rx="31.5" ry="32" fill="#D9D9D9"/>
<ellipse cx="901.5" cy="1236" rx="31.5" ry="32" fill="#D9D9D9"/>
<ellipse cx="901.5" cy="1139" rx="31.5" ry="32" fill="#D9D9D9"/>
<ellipse cx="901.5" cy="1042" rx="31.5" ry="32" fill="#D9D9D9"/>
<ellipse cx="901.5" cy="945" rx="31.5" ry="32" fill="#D9D9D9"/>
<ellipse cx="901.5" cy="848" rx="31.5" ry="32" fill="#D9D9D9"/>
<ellipse cx="901.5" cy="751" rx="31.5" ry="32" fill="#D9D9D9"/>
<ellipse cx="36.5" cy="843" rx="31.5" ry="32" fill="#D9D9D9"/>
<path d="M104.165 1609.09H111.523L128.824 1651.35H129.42L146.722 1609.09H154.08V1660H148.312V1621.32H147.815L131.906 1660H126.338L110.429 1621.32H109.932V1660H104.165V1609.09ZM176.881 1660.89C174.461 1660.89 172.265 1660.44 170.293 1659.53C168.321 1658.6 166.755 1657.27 165.595 1655.53C164.435 1653.77 163.855 1651.65 163.855 1649.16C163.855 1646.97 164.286 1645.2 165.148 1643.84C166.009 1642.47 167.161 1641.39 168.603 1640.61C170.045 1639.83 171.635 1639.25 173.376 1638.87C175.132 1638.47 176.897 1638.16 178.67 1637.93C180.99 1637.63 182.871 1637.4 184.313 1637.25C185.771 1637.09 186.832 1636.82 187.495 1636.43C188.174 1636.05 188.514 1635.39 188.514 1634.45V1634.25C188.514 1631.79 187.843 1629.89 186.501 1628.53C185.175 1627.17 183.161 1626.49 180.46 1626.49C177.659 1626.49 175.464 1627.1 173.873 1628.33C172.282 1629.56 171.163 1630.87 170.517 1632.26L164.949 1630.27C165.943 1627.95 167.269 1626.14 168.926 1624.85C170.6 1623.54 172.423 1622.63 174.395 1622.12C176.383 1621.59 178.339 1621.32 180.261 1621.32C181.488 1621.32 182.896 1621.47 184.487 1621.77C186.095 1622.05 187.644 1622.64 189.135 1623.53C190.644 1624.43 191.895 1625.78 192.889 1627.59C193.883 1629.39 194.381 1631.81 194.381 1634.84V1660H188.514V1654.83H188.216C187.818 1655.66 187.155 1656.54 186.227 1657.49C185.299 1658.43 184.064 1659.24 182.523 1659.9C180.982 1660.56 179.101 1660.89 176.881 1660.89ZM177.775 1655.62C180.095 1655.62 182.051 1655.17 183.642 1654.26C185.249 1653.35 186.459 1652.17 187.271 1650.73C188.1 1649.29 188.514 1647.77 188.514 1646.18V1640.81C188.265 1641.11 187.719 1641.38 186.873 1641.63C186.045 1641.86 185.084 1642.07 183.99 1642.25C182.913 1642.42 181.86 1642.57 180.833 1642.7C179.822 1642.81 179.002 1642.91 178.372 1643C176.847 1643.2 175.422 1643.52 174.096 1643.97C172.787 1644.4 171.727 1645.05 170.915 1645.93C170.119 1646.79 169.721 1647.97 169.721 1649.46C169.721 1651.5 170.475 1653.04 171.983 1654.08C173.508 1655.11 175.439 1655.62 177.775 1655.62ZM210.955 1637.03V1660H205.088V1609.09H210.955V1627.78H211.452C212.347 1625.81 213.689 1624.25 215.479 1623.09C217.285 1621.91 219.688 1621.32 222.688 1621.32C225.289 1621.32 227.568 1621.84 229.523 1622.89C231.479 1623.91 232.995 1625.5 234.072 1627.63C235.166 1629.76 235.713 1632.46 235.713 1635.74V1660H229.847V1636.14C229.847 1633.1 229.059 1630.76 227.485 1629.1C225.927 1627.43 223.765 1626.59 220.997 1626.59C219.075 1626.59 217.351 1627 215.827 1627.81C214.319 1628.62 213.125 1629.81 212.247 1631.36C211.385 1632.92 210.955 1634.81 210.955 1637.03ZM246.445 1660V1621.82H252.312V1660H246.445ZM249.428 1615.45C248.285 1615.45 247.299 1615.07 246.47 1614.29C245.658 1613.51 245.252 1612.57 245.252 1611.48C245.252 1610.38 245.658 1609.45 246.47 1608.67C247.299 1607.89 248.285 1607.5 249.428 1607.5C250.572 1607.5 251.55 1607.89 252.362 1608.67C253.19 1609.45 253.605 1610.38 253.605 1611.48C253.605 1612.57 253.19 1613.51 252.362 1614.29C251.55 1615.07 250.572 1615.45 249.428 1615.45ZM263.057 1660V1621.82H268.724V1627.59H269.122C269.818 1625.7 271.078 1624.16 272.901 1622.99C274.723 1621.81 276.778 1621.22 279.065 1621.22C279.496 1621.22 280.035 1621.23 280.681 1621.25C281.327 1621.26 281.816 1621.29 282.148 1621.32V1627.29C281.949 1627.24 281.493 1627.16 280.781 1627.06C280.085 1626.95 279.347 1626.89 278.568 1626.89C276.712 1626.89 275.055 1627.28 273.597 1628.06C272.155 1628.82 271.011 1629.88 270.166 1631.24C269.338 1632.58 268.923 1634.11 268.923 1635.84V1660H263.057ZM289.897 1660V1609.09H296.062V1634.35H296.659L319.528 1609.09H327.582L306.204 1632.06L327.582 1660H320.124L302.426 1636.34L296.062 1643.49V1660H289.897ZM346.002 1660.89C343.582 1660.89 341.386 1660.44 339.414 1659.53C337.442 1658.6 335.876 1657.27 334.716 1655.53C333.556 1653.77 332.976 1651.65 332.976 1649.16C332.976 1646.97 333.407 1645.2 334.269 1643.84C335.13 1642.47 336.282 1641.39 337.724 1640.61C339.166 1639.83 340.757 1639.25 342.497 1638.87C344.253 1638.47 346.018 1638.16 347.791 1637.93C350.111 1637.63 351.992 1637.4 353.434 1637.25C354.892 1637.09 355.953 1636.82 356.616 1636.43C357.295 1636.05 357.635 1635.39 357.635 1634.45V1634.25C357.635 1631.79 356.964 1629.89 355.622 1628.53C354.296 1627.17 352.282 1626.49 349.581 1626.49C346.78 1626.49 344.585 1627.1 342.994 1628.33C341.403 1629.56 340.284 1630.87 339.638 1632.26L334.07 1630.27C335.064 1627.95 336.39 1626.14 338.047 1624.85C339.721 1623.54 341.544 1622.63 343.516 1622.12C345.504 1621.59 347.46 1621.32 349.382 1621.32C350.609 1621.32 352.017 1621.47 353.608 1621.77C355.216 1622.05 356.765 1622.64 358.257 1623.53C359.765 1624.43 361.016 1625.78 362.01 1627.59C363.004 1629.39 363.502 1631.81 363.502 1634.84V1660H357.635V1654.83H357.337C356.939 1655.66 356.276 1656.54 355.348 1657.49C354.42 1658.43 353.186 1659.24 351.644 1659.9C350.103 1660.56 348.222 1660.89 346.002 1660.89ZM346.896 1655.62C349.217 1655.62 351.172 1655.17 352.763 1654.26C354.37 1653.35 355.58 1652.17 356.392 1650.73C357.221 1649.29 357.635 1647.77 357.635 1646.18V1640.81C357.387 1641.11 356.84 1641.38 355.994 1641.63C355.166 1641.86 354.205 1642.07 353.111 1642.25C352.034 1642.42 350.981 1642.57 349.954 1642.7C348.943 1642.81 348.123 1642.91 347.493 1643C345.968 1643.2 344.543 1643.52 343.218 1643.97C341.908 1644.4 340.848 1645.05 340.036 1645.93C339.24 1646.79 338.843 1647.97 338.843 1649.46C338.843 1651.5 339.597 1653.04 341.105 1654.08C342.629 1655.11 344.56 1655.62 346.896 1655.62ZM374.209 1660V1621.82H379.877V1627.59H380.275C380.971 1625.7 382.23 1624.16 384.053 1622.99C385.876 1621.81 387.931 1621.22 390.218 1621.22C390.649 1621.22 391.187 1621.23 391.833 1621.25C392.48 1621.26 392.969 1621.29 393.3 1621.32V1627.29C393.101 1627.24 392.645 1627.16 391.933 1627.06C391.237 1626.95 390.499 1626.89 389.721 1626.89C387.864 1626.89 386.207 1627.28 384.749 1628.06C383.307 1628.82 382.164 1629.88 381.319 1631.24C380.49 1632.58 380.076 1634.11 380.076 1635.84V1660H374.209ZM419.252 1621.82V1626.79H399.465V1621.82H419.252ZM405.232 1612.67H411.098V1649.06C411.098 1650.72 411.339 1651.96 411.819 1652.79C412.316 1653.6 412.946 1654.15 413.708 1654.43C414.487 1654.7 415.308 1654.83 416.169 1654.83C416.816 1654.83 417.346 1654.8 417.76 1654.73C418.175 1654.65 418.506 1654.58 418.755 1654.53L419.948 1659.8C419.55 1659.95 418.995 1660.1 418.282 1660.25C417.57 1660.41 416.667 1660.5 415.573 1660.5C413.916 1660.5 412.292 1660.14 410.701 1659.43C409.126 1658.72 407.817 1657.63 406.773 1656.17C405.746 1654.71 405.232 1652.87 405.232 1650.65V1612.67ZM478.985 1621.82L464.866 1660H458.9L444.781 1621.82H451.145L461.684 1652.24H462.082L472.622 1621.82H478.985ZM503.234 1660.7C499.489 1660.7 496.299 1659.68 493.664 1657.64C491.029 1655.58 489.016 1652.61 487.624 1648.71C486.232 1644.8 485.536 1640.08 485.536 1634.55C485.536 1629.04 486.232 1624.35 487.624 1620.45C489.032 1616.54 491.054 1613.56 493.689 1611.5C496.34 1609.43 499.522 1608.39 503.234 1608.39C506.946 1608.39 510.12 1609.43 512.755 1611.5C515.406 1613.56 517.428 1616.54 518.82 1620.45C520.229 1624.35 520.933 1629.04 520.933 1634.55C520.933 1640.08 520.237 1644.8 518.845 1648.71C517.453 1652.61 515.44 1655.58 512.805 1657.64C510.17 1659.68 506.98 1660.7 503.234 1660.7ZM503.234 1655.23C506.946 1655.23 509.83 1653.44 511.885 1649.86C513.94 1646.28 514.967 1641.17 514.967 1634.55C514.967 1630.14 514.495 1626.38 513.55 1623.28C512.622 1620.19 511.28 1617.82 509.523 1616.2C507.783 1614.58 505.687 1613.76 503.234 1613.76C499.555 1613.76 496.68 1615.58 494.609 1619.21C492.537 1622.82 491.501 1627.93 491.501 1634.55C491.501 1638.95 491.965 1642.7 492.893 1645.78C493.821 1648.86 495.156 1651.21 496.896 1652.82C498.652 1654.42 500.765 1655.23 503.234 1655.23ZM532.977 1660.4C531.751 1660.4 530.698 1659.96 529.82 1659.08C528.942 1658.2 528.502 1657.15 528.502 1655.92C528.502 1654.7 528.942 1653.64 529.82 1652.77C530.698 1651.89 531.751 1651.45 532.977 1651.45C534.203 1651.45 535.256 1651.89 536.134 1652.77C537.012 1653.64 537.451 1654.7 537.451 1655.92C537.451 1656.74 537.244 1657.48 536.83 1658.16C536.432 1658.84 535.894 1659.39 535.214 1659.8C534.551 1660.2 533.806 1660.4 532.977 1660.4ZM559.693 1609.09V1660H553.528V1615.55H553.23L540.801 1623.81V1617.54L553.528 1609.09H559.693ZM606.252 1634.55C606.252 1631.83 606.915 1629.35 608.241 1627.11C609.566 1624.88 611.348 1623.09 613.585 1621.77C615.822 1620.44 618.3 1619.78 621.018 1619.78C623.371 1619.78 625.542 1620.29 627.53 1621.3C629.536 1622.31 631.193 1623.69 632.502 1625.45C633.811 1627.19 634.623 1629.16 634.938 1631.36H628.922C628.591 1629.66 627.671 1628.26 626.163 1627.19C624.655 1626.09 622.94 1625.55 621.018 1625.55C619.36 1625.55 617.852 1625.95 616.493 1626.76C615.135 1627.58 614.049 1628.66 613.237 1630.02C612.425 1631.38 612.019 1632.89 612.019 1634.55C612.019 1636.2 612.425 1637.71 613.237 1639.07C614.049 1640.43 615.135 1641.51 616.493 1642.33C617.852 1643.14 619.36 1643.54 621.018 1643.54C622.94 1643.54 624.564 1643.01 625.89 1641.93C627.232 1640.83 628.077 1639.43 628.425 1637.73H634.441C634.126 1639.93 633.355 1641.91 632.129 1643.67C630.903 1645.41 629.328 1646.78 627.406 1647.79C625.5 1648.81 623.371 1649.31 621.018 1649.31C618.3 1649.31 615.822 1648.65 613.585 1647.32C611.348 1646 609.566 1644.22 608.241 1641.98C606.915 1639.74 606.252 1637.26 606.252 1634.55ZM620.769 1660.8C617.156 1660.8 613.759 1660.12 610.577 1658.76C607.412 1657.4 604.62 1655.52 602.2 1653.11C599.797 1650.69 597.908 1647.9 596.532 1644.74C595.174 1641.57 594.502 1638.17 594.519 1634.55C594.536 1630.92 595.223 1627.52 596.582 1624.35C597.958 1621.19 599.847 1618.4 602.25 1616C604.653 1613.58 607.437 1611.69 610.602 1610.33C613.767 1608.97 617.156 1608.3 620.769 1608.3C624.398 1608.3 627.796 1608.97 630.961 1610.33C634.143 1611.69 636.927 1613.58 639.313 1616C641.716 1618.4 643.597 1621.19 644.956 1624.35C646.315 1627.52 647.002 1630.92 647.019 1634.55C647.036 1638.17 646.364 1641.57 645.006 1644.74C643.647 1647.9 641.766 1650.69 639.363 1653.11C636.96 1655.52 634.167 1657.4 630.986 1658.76C627.804 1660.12 624.398 1660.8 620.769 1660.8ZM620.769 1655.03C623.603 1655.03 626.263 1654.5 628.748 1653.44C631.234 1652.38 633.413 1650.91 635.286 1649.04C637.159 1647.17 638.625 1644.99 639.686 1642.52C640.747 1640.04 641.269 1637.39 641.252 1634.57C641.235 1631.74 640.697 1629.08 639.636 1626.59C638.576 1624.11 637.109 1621.93 635.236 1620.05C633.364 1618.18 631.193 1616.71 628.724 1615.65C626.254 1614.59 623.603 1614.06 620.769 1614.06C617.952 1614.06 615.309 1614.59 612.839 1615.65C610.37 1616.71 608.199 1618.19 606.327 1620.08C604.454 1621.95 602.979 1624.13 601.902 1626.62C600.841 1629.08 600.303 1631.74 600.286 1634.57C600.269 1637.37 600.791 1640.01 601.852 1642.5C602.913 1644.97 604.379 1647.14 606.252 1649.01C608.141 1650.89 610.32 1652.36 612.79 1653.44C615.275 1654.5 617.935 1655.03 620.769 1655.03ZM677.762 1660V1655.53L694.566 1637.13C696.538 1634.98 698.162 1633.1 699.438 1631.51C700.714 1629.91 701.659 1628.4 702.272 1626.99C702.902 1625.56 703.217 1624.07 703.217 1622.51C703.217 1620.72 702.786 1619.17 701.924 1617.87C701.079 1616.56 699.919 1615.55 698.444 1614.83C696.969 1614.12 695.312 1613.76 693.472 1613.76C691.517 1613.76 689.81 1614.17 688.352 1614.98C686.91 1615.78 685.791 1616.9 684.996 1618.34C684.217 1619.78 683.827 1621.47 683.827 1623.41H677.961C677.961 1620.43 678.649 1617.81 680.024 1615.55C681.4 1613.3 683.272 1611.54 685.642 1610.28C688.028 1609.02 690.705 1608.39 693.671 1608.39C696.654 1608.39 699.297 1609.02 701.601 1610.28C703.904 1611.54 705.711 1613.24 707.02 1615.38C708.329 1617.52 708.984 1619.9 708.984 1622.51C708.984 1624.39 708.644 1626.22 707.964 1628.01C707.302 1629.78 706.142 1631.76 704.484 1633.95C702.844 1636.12 700.565 1638.77 697.648 1641.9L686.214 1654.13V1654.53H709.879V1660H677.762ZM736.75 1660.7C733.005 1660.7 729.815 1659.68 727.18 1657.64C724.545 1655.58 722.531 1652.61 721.139 1648.71C719.747 1644.8 719.051 1640.08 719.051 1634.55C719.051 1629.04 719.747 1624.35 721.139 1620.45C722.548 1616.54 724.57 1613.56 727.205 1611.5C729.856 1609.43 733.038 1608.39 736.75 1608.39C740.462 1608.39 743.636 1609.43 746.271 1611.5C748.922 1613.56 750.944 1616.54 752.336 1620.45C753.745 1624.35 754.449 1629.04 754.449 1634.55C754.449 1640.08 753.753 1644.8 752.361 1648.71C750.969 1652.61 748.955 1655.58 746.32 1657.64C743.685 1659.68 740.495 1660.7 736.75 1660.7ZM736.75 1655.23C740.462 1655.23 743.346 1653.44 745.401 1649.86C747.455 1646.28 748.483 1641.17 748.483 1634.55C748.483 1630.14 748.011 1626.38 747.066 1623.28C746.138 1620.19 744.796 1617.82 743.039 1616.2C741.299 1614.58 739.203 1613.76 736.75 1613.76C733.071 1613.76 730.196 1615.58 728.124 1619.21C726.053 1622.82 725.017 1627.93 725.017 1634.55C725.017 1638.95 725.481 1642.7 726.409 1645.78C727.337 1648.86 728.671 1651.21 730.411 1652.82C732.168 1654.42 734.281 1655.23 736.75 1655.23ZM763.895 1660V1655.53L780.699 1637.13C782.671 1634.98 784.295 1633.1 785.571 1631.51C786.847 1629.91 787.792 1628.4 788.405 1626.99C789.035 1625.56 789.349 1624.07 789.349 1622.51C789.349 1620.72 788.919 1619.17 788.057 1617.87C787.212 1616.56 786.052 1615.55 784.577 1614.83C783.102 1614.12 781.445 1613.76 779.605 1613.76C777.65 1613.76 775.943 1614.17 774.484 1614.98C773.043 1615.78 771.924 1616.9 771.129 1618.34C770.35 1619.78 769.96 1621.47 769.96 1623.41H764.094C764.094 1620.43 764.781 1617.81 766.157 1615.55C767.532 1613.3 769.405 1611.54 771.775 1610.28C774.161 1609.02 776.838 1608.39 779.804 1608.39C782.787 1608.39 785.43 1609.02 787.734 1610.28C790.037 1611.54 791.844 1613.24 793.153 1615.38C794.462 1617.52 795.116 1619.9 795.116 1622.51C795.116 1624.39 794.777 1626.22 794.097 1628.01C793.434 1629.78 792.274 1631.76 790.617 1633.95C788.977 1636.12 786.698 1638.77 783.781 1641.9L772.347 1654.13V1654.53H796.011V1660H763.895ZM823.479 1660.7C820.198 1660.7 817.273 1660.13 814.705 1659.01C812.152 1657.88 810.122 1656.31 808.614 1654.31C807.123 1652.29 806.311 1649.94 806.178 1647.27H812.442C812.575 1648.91 813.138 1650.33 814.133 1651.52C815.127 1652.7 816.428 1653.61 818.036 1654.26C819.643 1654.9 821.424 1655.23 823.38 1655.23C825.567 1655.23 827.506 1654.85 829.197 1654.08C830.887 1653.32 832.213 1652.26 833.174 1650.9C834.135 1649.54 834.616 1647.97 834.616 1646.18C834.616 1644.31 834.152 1642.66 833.224 1641.23C832.296 1639.79 830.937 1638.66 829.147 1637.85C827.357 1637.04 825.17 1636.63 822.585 1636.63H818.508V1631.16H822.585C824.606 1631.16 826.379 1630.8 827.904 1630.07C829.445 1629.34 830.647 1628.31 831.509 1626.99C832.387 1625.66 832.826 1624.11 832.826 1622.32C832.826 1620.59 832.445 1619.09 831.683 1617.82C830.92 1616.54 829.843 1615.55 828.451 1614.83C827.076 1614.12 825.451 1613.76 823.579 1613.76C821.822 1613.76 820.165 1614.09 818.607 1614.73C817.066 1615.36 815.807 1616.28 814.829 1617.49C813.851 1618.69 813.321 1620.13 813.238 1621.82H807.272C807.371 1619.15 808.175 1616.81 809.683 1614.81C811.191 1612.79 813.163 1611.21 815.599 1610.09C818.052 1608.96 820.745 1608.39 823.678 1608.39C826.827 1608.39 829.528 1609.03 831.782 1610.31C834.036 1611.57 835.768 1613.23 836.977 1615.31C838.187 1617.38 838.792 1619.61 838.792 1622.02C838.792 1624.88 838.038 1627.33 836.53 1629.35C835.038 1631.37 833.008 1632.77 830.44 1633.55V1633.95C833.655 1634.48 836.165 1635.85 837.972 1638.05C839.778 1640.24 840.681 1642.95 840.681 1646.18C840.681 1648.95 839.927 1651.43 838.419 1653.64C836.928 1655.82 834.889 1657.55 832.304 1658.81C829.719 1660.07 826.777 1660.7 823.479 1660.7Z" fill="white"/>
<rect x="339" y="1447" width="138" height="140" fill="#353130"/>
<ellipse cx="462.5" cy="1457" rx="5.5" ry="5" fill="#D9D9D9"/>
<rect x="611" y="1493" width="94" height="78" fill="#959791"/>
<rect x="238" y="1221" width="121" height="195" fill="#353130"/>
<rect x="117" y="447" width="137" height="287" stroke="#D9D9D9" stroke-width="10"/>
<ellipse cx="207.5" cy="523.5" rx="19.5" ry="17.5" fill="#D9D9D9"/>
<path d="M227 668.5C227 678.165 218.27 686 207.5 686C196.73 686 188 678.165 188 668.5C188 658.835 196.73 651 207.5 651C218.27 651 227 658.835 227 668.5Z" fill="#D9D9D9"/>
<ellipse cx="207.5" cy="620.5" rx="19.5" ry="17.5" fill="#D9D9D9"/>
<ellipse cx="207.5" cy="572.5" rx="19.5" ry="17.5" fill="#D9D9D9"/>
<rect x="117" y="143" width="137" height="287" stroke="#D9D9D9" stroke-width="10"/>
<ellipse cx="207.5" cy="214.5" rx="19.5" ry="17.5" fill="#D9D9D9"/>
<path d="M227 359.5C227 369.165 218.27 377 207.5 377C196.73 377 188 369.165 188 359.5C188 349.835 196.73 342 207.5 342C218.27 342 227 349.835 227 359.5Z" fill="#D9D9D9"/>
<ellipse cx="207.5" cy="311.5" rx="19.5" ry="17.5" fill="#D9D9D9"/>
<ellipse cx="207.5" cy="263.5" rx="19.5" ry="17.5" fill="#D9D9D9"/>
<rect x="292" width="322" height="286" fill="#A39990"/>
<rect x="345" y="243" width="25" height="43" fill="#1E1B1B"/>
<rect x="539" y="243" width="22" height="43" fill="#1E1B1B"/>
<rect x="345" y="243" width="58" height="17" fill="#1E1B1B"/>
<rect x="503" y="243" width="58" height="17" fill="#1E1B1B"/>
<rect x="322" y="286" width="23" height="37" fill="#D9D9D9"/>
<rect x="357" y="286" width="21" height="37" fill="#D9D9D9"/>
<rect x="388" y="286" width="9" height="37" fill="#D9D9D9"/>
<rect x="407" y="286" width="9" height="37" fill="#D9D9D9"/>
<rect x="426" y="286" width="8" height="37" fill="#D9D9D9"/>
<rect width="23" height="37" transform="matrix(-1 0 0 1 595 286)" fill="#D9D9D9"/>
<rect width="21" height="37" transform="matrix(-1 0 0 1 560 286)" fill="#D9D9D9"/>
<rect width="9" height="37" transform="matrix(-1 0 0 1 529 286)" fill="#D9D9D9"/>
<rect width="9" height="37" transform="matrix(-1 0 0 1 510 286)" fill="#D9D9D9"/>
<rect width="8" height="37" transform="matrix(-1 0 0 1 491 286)" fill="#D9D9D9"/>
<rect x="445" y="286" width="11" height="37" fill="#D9D9D9"/>
<rect x="463" y="286" width="11" height="37" fill="#D9D9D9"/>
<rect x="434" y="182" width="34" height="19" fill="#A09082"/>
<rect x="335" y="590" width="81" height="116" fill="#353130"/>
<rect x="695" y="279" width="66" height="121" fill="#2E2929"/>
<rect x="660" y="286" width="35" height="28" fill="#C9D2D2"/>
<rect x="761" y="325" width="35" height="28" fill="#C9D2D2"/>
<rect x="660" y="358" width="35" height="28" fill="#C9D2D2"/>
<rect x="689" y="59" width="161" height="118" stroke="#D9D9D9" stroke-width="10"/>
<ellipse cx="857.5" cy="454" rx="19" ry="18.5" transform="rotate(-90 857.5 454)" fill="#D9D9D9"/>
<ellipse cx="857.5" cy="502" rx="19" ry="18.5" transform="rotate(-90 857.5 502)" fill="#D9D9D9"/>
<rect x="819" y="367" width="161" height="118" transform="rotate(-90 819 367)" stroke="#D9D9D9" stroke-width="10"/>
<ellipse cx="857.5" cy="271" rx="19" ry="18.5" transform="rotate(-90 857.5 271)" fill="#D9D9D9"/>
<ellipse cx="857.5" cy="319" rx="19" ry="18.5" transform="rotate(-90 857.5 319)" fill="#D9D9D9"/>
<rect x="819" y="555" width="161.818" height="118" transform="rotate(-90 819 555)" stroke="#D9D9D9" stroke-width="10"/>
<ellipse cx="747" cy="145.589" rx="19" ry="18.5885" fill="#D9D9D9"/>
<ellipse cx="795" cy="145.589" rx="19" ry="18.5885" fill="#D9D9D9"/>
<path d="M601 429H690V550H601V429Z" fill="#353130"/>
<rect x="711" y="429" width="89" height="121" fill="#353130"/>
<ellipse cx="418.5" cy="751" rx="10.5" ry="12" fill="#C9D2D2"/>
<ellipse cx="418.5" cy="769" rx="10.5" ry="12" fill="#C9D2D2"/>
<rect x="408" y="751" width="21" height="18" fill="#C3A487"/>
<ellipse cx="429.5" cy="813" rx="10.5" ry="12" fill="#C9D2D2"/>
<ellipse cx="429.5" cy="831" rx="10.5" ry="12" fill="#C9D2D2"/>
<rect x="419" y="813" width="21" height="18" fill="#C3A487"/>
<ellipse cx="285.5" cy="813" rx="10.5" ry="12" fill="#C9D2D2"/>
<ellipse cx="285.5" cy="831" rx="10.5" ry="12" fill="#C9D2D2"/>
<rect x="275" y="813" width="21" height="18" fill="#C3A487"/>
<ellipse cx="639.5" cy="833" rx="10.5" ry="12" fill="#C9D2D2"/>
<ellipse cx="639.5" cy="851" rx="10.5" ry="12" fill="#C9D2D2"/>
<rect x="629" y="833" width="21" height="18" fill="#C3A487"/>
<ellipse cx="589" cy="890.5" rx="10.5" ry="12" transform="rotate(-90 589 890.5)" fill="#C9D2D2"/>
<ellipse cx="607" cy="890.5" rx="10.5" ry="12" transform="rotate(-90 607 890.5)" fill="#C9D2D2"/>
<rect x="589" y="901" width="21" height="18" transform="rotate(-90 589 901)" fill="#C3A487"/>
<ellipse cx="203" cy="1053.5" rx="10.5" ry="12" transform="rotate(-90 203 1053.5)" fill="#C9D2D2"/>
<ellipse cx="221" cy="1053.5" rx="10.5" ry="12" transform="rotate(-90 221 1053.5)" fill="#C9D2D2"/>
<rect x="203" y="1064" width="21" height="18" transform="rotate(-90 203 1064)" fill="#C3A487"/>
<ellipse cx="675" cy="1456.5" rx="10.5" ry="12" transform="rotate(-90 675 1456.5)" fill="#C9D2D2"/>
<ellipse cx="693" cy="1456.5" rx="10.5" ry="12" transform="rotate(-90 693 1456.5)" fill="#C9D2D2"/>
<rect x="675" y="1467" width="21" height="18" transform="rotate(-90 675 1467)" fill="#C3A487"/>
<ellipse cx="601" cy="1456.5" rx="10.5" ry="12" transform="rotate(-90 601 1456.5)" fill="#C9D2D2"/>
<ellipse cx="619" cy="1456.5" rx="10.5" ry="12" transform="rotate(-90 619 1456.5)" fill="#C9D2D2"/>
<rect x="601" y="1467" width="21" height="18" transform="rotate(-90 601 1467)" fill="#C3A487"/>
<ellipse cx="390.5" cy="1331" rx="10.5" ry="12" fill="#C9D2D2"/>
<ellipse cx="390.5" cy="1349" rx="10.5" ry="12" fill="#C9D2D2"/>
<rect x="380" y="1331" width="21" height="18" fill="#C3A487"/>
<ellipse cx="390.5" cy="1331" rx="10.5" ry="12" fill="#C9D2D2"/>
<ellipse cx="390.5" cy="1349" rx="10.5" ry="12" fill="#C9D2D2"/>
<rect x="380" y="1331" width="21" height="18" fill="#C3A487"/>
<ellipse cx="390.5" cy="1263" rx="10.5" ry="12" fill="#C9D2D2"/>
<ellipse cx="390.5" cy="1281" rx="10.5" ry="12" fill="#C9D2D2"/>
<rect x="380" y="1263" width="21" height="18" fill="#C3A487"/>
<ellipse cx="468.5" cy="1183" rx="10.5" ry="12" fill="#C9D2D2"/>
<ellipse cx="468.5" cy="1201" rx="10.5" ry="12" fill="#C9D2D2"/>
<rect x="458" y="1183" width="21" height="18" fill="#C3A487"/>
<ellipse cx="669.91" cy="1124.91" rx="10.5" ry="12" transform="rotate(-45 669.91 1124.91)" fill="#C9D2D2"/>
<ellipse cx="682.638" cy="1137.64" rx="10.5" ry="12" transform="rotate(-45 682.638 1137.64)" fill="#C9D2D2"/>
<rect x="662.485" y="1132.33" width="21" height="18" transform="rotate(-45 662.485 1132.33)" fill="#C3A487"/>
<ellipse cx="438.5" cy="1195" rx="10.5" ry="12" fill="#C9D2D2"/>
<ellipse cx="438.5" cy="1213" rx="10.5" ry="12" fill="#C9D2D2"/>
<rect x="428" y="1195" width="21" height="18" fill="#C3A487"/>
<ellipse cx="523.5" cy="1571" rx="10.5" ry="12" fill="#C9D2D2"/>
<ellipse cx="523.5" cy="1589" rx="10.5" ry="12" fill="#C9D2D2"/>
<rect x="513" y="1571" width="21" height="18" fill="#C3A487"/>
<ellipse cx="288.5" cy="1539" rx="10.5" ry="12" fill="#C9D2D2"/>
<ellipse cx="288.5" cy="1557" rx="10.5" ry="12" fill="#C9D2D2"/>
<rect x="278" y="1539" width="21" height="18" fill="#C3A487"/>
<ellipse cx="560" cy="809.5" rx="10.5" ry="12" transform="rotate(-90 560 809.5)" fill="#C9D2D2"/>
<ellipse cx="578" cy="809.5" rx="10.5" ry="12" transform="rotate(-90 578 809.5)" fill="#C9D2D2"/>
<rect x="560" y="820" width="21" height="18" transform="rotate(-90 560 820)" fill="#C3A487"/>
<ellipse cx="560" cy="843.5" rx="10.5" ry="12" transform="rotate(-90 560 843.5)" fill="#C9D2D2"/>
<ellipse cx="578" cy="843.5" rx="10.5" ry="12" transform="rotate(-90 578 843.5)" fill="#C9D2D2"/>
<rect x="560" y="854" width="21" height="18" transform="rotate(-90 560 854)" fill="#C3A487"/>
<rect x="620" y="763" width="19" height="25" fill="#2E2929"/>
<rect x="621" y="760" width="17" height="5" fill="#C9D2D2"/>
<rect x="621" y="785" width="17" height="5" fill="#C9D2D2"/>
<rect x="578" y="716" width="19" height="25" transform="rotate(-90 578 716)" fill="#2E2929"/>
<rect x="575" y="715" width="17" height="5" transform="rotate(-90 575 715)" fill="#C9D2D2"/>
<rect x="600" y="715" width="17" height="5" transform="rotate(-90 600 715)" fill="#C9D2D2"/>
<rect x="687" y="227" width="20" height="50" transform="rotate(-90 687 227)" fill="#2E2929"/>
<rect x="681" y="225.947" width="17.8947" height="10" transform="rotate(-90 681 225.947)" fill="#C9D2D2"/>
<rect x="731" y="225.947" width="17.8947" height="10" transform="rotate(-90 731 225.947)" fill="#C9D2D2"/>
<rect x="577" y="373" width="20" height="50" transform="rotate(-90 577 373)" fill="#2E2929"/>
<rect x="571" y="371.947" width="17.8947" height="10" transform="rotate(-90 571 371.947)" fill="#C9D2D2"/>
<rect x="621" y="371.947" width="17.8947" height="10" transform="rotate(-90 621 371.947)" fill="#C9D2D2"/>
<rect x="779" y="213" width="20" height="50" fill="#2E2929"/>
<rect x="780.053" y="207" width="17.8947" height="10" fill="#C9D2D2"/>
<rect x="780.053" y="257" width="17.8947" height="10" fill="#C9D2D2"/>
<rect x="483" y="752" width="19" height="25" transform="rotate(-90 483 752)" fill="#2E2929"/>
<rect x="480" y="751" width="17" height="5" transform="rotate(-90 480 751)" fill="#C9D2D2"/>
<rect x="505" y="751" width="17" height="5" transform="rotate(-90 505 751)" fill="#C9D2D2"/>
<rect x="784" y="1019" width="19" height="25" transform="rotate(-90 784 1019)" fill="#2E2929"/>
<rect x="781" y="1018" width="17" height="5" transform="rotate(-90 781 1018)" fill="#C9D2D2"/>
<rect x="806" y="1018" width="17" height="5" transform="rotate(-90 806 1018)" fill="#C9D2D2"/>
<rect x="495" y="785" width="19" height="25" transform="rotate(-90 495 785)" fill="#2E2929"/>
<rect x="492" y="784" width="17" height="5" transform="rotate(-90 492 784)" fill="#C9D2D2"/>
<rect x="517" y="784" width="17" height="5" transform="rotate(-90 517 784)" fill="#C9D2D2"/>
<rect x="388" y="1407" width="19" height="25" transform="rotate(-90 388 1407)" fill="#2E2929"/>
<rect x="385" y="1406" width="17" height="5" transform="rotate(-90 385 1406)" fill="#C9D2D2"/>
<rect x="410" y="1406" width="17" height="5" transform="rotate(-90 410 1406)" fill="#C9D2D2"/>
<rect x="513" y="1481" width="19" height="25" fill="#2E2929"/>
<rect x="514" y="1478" width="17" height="5" fill="#C9D2D2"/>
<rect x="514" y="1503" width="17" height="5" fill="#C9D2D2"/>
<rect x="550" y="1511" width="19" height="25" fill="#2E2929"/>
<rect x="551" y="1508" width="17" height="5" fill="#C9D2D2"/>
<rect x="551" y="1533" width="17" height="5" fill="#C9D2D2"/>
<rect x="428" y="577" width="19" height="25" fill="#2E2929"/>
<rect x="429" y="574" width="17" height="5" fill="#C9D2D2"/>
<rect x="429" y="599" width="17" height="5" fill="#C9D2D2"/>
</svg>
